<svg width="215" height="240" viewBox="0 0 215 240" fill="none" xmlns="http://www.w3.org/2000/svg">
<g id="Group 4870">
<path id="Vector" d="M210.5 165.709V73.2905C210.496 69.2388 209.436 65.2594 207.428 61.7516C205.419 58.2437 202.532 55.3308 199.056 53.3049L118.944 7.09545C115.465 5.06758 111.518 4 107.5 4C103.482 4 99.5351 5.06758 96.0556 7.09545L15.9444 53.3049C12.4683 55.3308 9.58111 58.2437 7.57239 61.7516C5.56368 65.2594 4.50412 69.2388 4.5 73.2905V165.709C4.50412 169.761 5.56368 173.741 7.57239 177.248C9.58111 180.756 12.4683 183.669 15.9444 185.695L96.0556 231.905C99.5351 233.932 103.482 235 107.5 235C111.518 235 115.465 233.932 118.944 231.905L199.056 185.695C202.532 183.669 205.419 180.756 207.428 177.248C209.436 173.741 210.496 169.761 210.5 165.709Z" stroke="#7153FF" stroke-width="8" stroke-linecap="round" stroke-linejoin="round"/>
<path id="Vector_2" d="M7.48547 61L107.5 119L207.514 61" stroke="#7153FF" stroke-width="8" stroke-linecap="round" stroke-linejoin="round"/>
<path id="Vector_3" d="M107.998 236V120" stroke="#7153FF" stroke-width="8" stroke-linecap="round" stroke-linejoin="round"/>
</g>
</svg>
