<svg width="34" height="29" viewBox="0 0 34 29" fill="none" xmlns="http://www.w3.org/2000/svg">
<g id="Group">
<path id="Vector" d="M32.436 19.3665L24.344 11.7776C23.7455 11.2201 23.0384 10.9481 22.2903 10.9481C21.556 10.9481 20.876 11.2065 20.2504 11.764L13.26 18.0064H13.8584L10.4992 14.9736C9.9416 14.4568 9.31599 14.1985 8.67679 14.1985C8.05119 14.1985 7.46639 14.4568 6.92239 14.96L1.7272 19.6521C1.7272 21.4745 2.4344 22.3993 3.8352 22.3993H29.7296C31.4568 22.3993 32.436 21.3113 32.436 19.3665ZM11.084 11.9409C12.8248 11.9409 14.2664 10.4993 14.2664 8.70407C14.2664 6.96327 12.8248 5.50807 11.084 5.50807C9.31599 5.50807 7.8608 6.96327 7.8608 8.70407C7.8608 10.4993 9.31599 11.9409 11.084 11.9409ZM3.4952 23.5009H30.5048C32.8031 23.5009 34 22.3177 34 20.0057V4.42007C34 2.12167 32.8031 0.938477 30.5048 0.938477H3.4952C1.1968 0.938477 0 2.12167 0 4.42007V20.0057C0 22.3177 1.1968 23.5009 3.4952 23.5009ZM3.536 21.3113C2.6384 21.3113 2.1896 20.8625 2.1896 19.9784V4.46087C2.1896 3.56327 2.6384 3.12807 3.536 3.12807H30.464C31.3615 3.12807 31.8104 3.56327 31.8104 4.46087V19.9784C31.8104 20.8625 31.3615 21.3113 30.464 21.3113H3.536ZM10.1592 28.1113H23.8408C24.4392 28.1113 24.9424 27.6217 24.9424 27.0096C24.9424 26.3977 24.4392 25.908 23.8408 25.908H10.1592C9.56079 25.908 9.0576 26.3977 9.0576 27.0096C9.0576 27.6217 9.56079 28.1113 10.1592 28.1113Z" fill="#8A8886"/>
</g>
</svg>
