<svg width="43" height="25" viewBox="0 0 43 25" fill="none" xmlns="http://www.w3.org/2000/svg">
<path id="Vector" d="M0 23.2484C0 24.2164 0.760401 25 1.68481 25H41.3152C42.2395 25 43 24.2164 43 23.2484C43 22.2803 42.2395 21.4967 41.3152 21.4967H38.0498V3.25753C38.0498 1.10633 36.9316 0 34.8591 0H8.14077C6.17267 0 4.95006 1.10633 4.95006 3.25753V21.4967H1.68481C0.760401 21.4967 0 22.2803 0 23.2484ZM7.35054 21.4967V3.949C7.35054 2.96559 7.82766 2.47389 8.78189 2.47389H34.218C35.1723 2.47389 35.6494 2.96559 35.6494 3.949V21.4967H7.35054Z" fill="#8A8886"/>
</svg>
