<svg width="21" height="28" viewBox="0 0 21 28" fill="none" xmlns="http://www.w3.org/2000/svg">
<path id="Vector" d="M0 24.7191C0 26.6827 1.39497 28 3.48115 28H17.5188C19.605 28 21 26.6827 21 24.7191V3.29339C21 1.32979 19.605 0 17.5188 0H3.48115C1.39497 0 0 1.32979 0 3.29339V24.7191ZM2.02334 24.3835V3.62895C2.02334 2.60986 2.65171 2.00089 3.7325 2.00089H17.2676C18.3358 2.00089 18.9767 2.60986 18.9767 3.62895V24.3835C18.9767 25.4026 18.3358 25.9991 17.2676 25.9991H3.7325C2.65171 25.9991 2.02334 25.4026 2.02334 24.3835ZM6.93717 25.0546H14.0629C14.4147 25.0546 14.6536 24.8185 14.6536 24.4705C14.6536 24.1225 14.4147 23.8989 14.0629 23.8989H6.93717C6.59785 23.8989 6.35908 24.1225 6.35908 24.4705C6.35908 24.8185 6.59785 25.0546 6.93717 25.0546Z" fill="#8A8886"/>
</svg>
