<svg width="36" height="27" viewBox="0 0 36 27" fill="none" xmlns="http://www.w3.org/2000/svg">
<g id="Vector">
<path d="M4.7939 27H31.2061C34.4123 27 36 25.4747 36 22.4535V4.54643C36 1.52526 34.4123 0 31.2061 0H4.7939C1.60306 0 0 1.51059 0 4.54643V22.4535C0 25.4893 1.60306 27 4.7939 27ZM4.82442 24.6387C3.29771 24.6387 2.45802 23.8614 2.45802 22.3362V4.66376C2.45802 3.13851 3.29771 2.36122 4.82442 2.36122H31.1756C32.687 2.36122 33.542 3.13851 33.542 4.66376V22.3362C33.542 23.8614 32.687 24.6387 31.1756 24.6387H4.82442ZM12.1069 23.5095H23.9085C24.3207 23.5095 24.6107 23.2455 24.6107 22.8348C24.6107 22.4242 24.3207 22.1456 23.9085 22.1456H12.1069C11.6947 22.1456 11.3893 22.4242 11.3893 22.8348C11.3893 23.2455 11.6947 23.5095 12.1069 23.5095Z" fill="#7153FF"/>
<path d="M4.7939 27H31.2061C34.4123 27 36 25.4747 36 22.4535V4.54643C36 1.52526 34.4123 0 31.2061 0H4.7939C1.60306 0 0 1.51059 0 4.54643V22.4535C0 25.4893 1.60306 27 4.7939 27ZM4.82442 24.6387C3.29771 24.6387 2.45802 23.8614 2.45802 22.3362V4.66376C2.45802 3.13851 3.29771 2.36122 4.82442 2.36122H31.1756C32.687 2.36122 33.542 3.13851 33.542 4.66376V22.3362C33.542 23.8614 32.687 24.6387 31.1756 24.6387H4.82442ZM12.1069 23.5095H23.9085C24.3207 23.5095 24.6107 23.2455 24.6107 22.8348C24.6107 22.4242 24.3207 22.1456 23.9085 22.1456H12.1069C11.6947 22.1456 11.3893 22.4242 11.3893 22.8348C11.3893 23.2455 11.6947 23.5095 12.1069 23.5095Z" fill="black" fill-opacity="0.2"/>
</g>
</svg>
